<?xml version="1.0" encoding="utf-8"?>
<!-- Generator: Adobe Illustrator 23.0.3, SVG Export Plug-In . SVG Version: 6.00 Build 0)  -->
<svg version="1.1" id="Layer_1" xmlns="http://www.w3.org/2000/svg" xmlns:xlink="http://www.w3.org/1999/xlink" x="0px" y="0px"
	 viewBox="0 0 50 50" style="enable-background:new 0 0 50 50;" xml:space="preserve">
<style type="text/css">
	.st0{fill:url(#SVGID_1_);}
	.st1{fill:url(#SVGID_2_);}
	.st2{fill:url(#SVGID_3_);}
	.st3{fill:url(#SVGID_4_);}
	.st4{fill:url(#SVGID_5_);}
	.st5{fill:url(#SVGID_6_);}
	.st6{fill:url(#SVGID_7_);}
	.st7{fill:url(#SVGID_8_);}
	.st8{fill:url(#SVGID_9_);}
	.st9{fill:url(#SVGID_10_);}
	.st10{fill:url(#SVGID_11_);}
	.st11{fill:url(#SVGID_12_);}
	.st12{fill:url(#SVGID_13_);}
	.st13{fill:url(#SVGID_14_);}
	.st14{fill:url(#SVGID_15_);}
	.st15{fill:url(#SVGID_16_);}
	.st16{fill:url(#SVGID_17_);}
	.st17{fill:url(#SVGID_18_);}
	.st18{fill:url(#SVGID_19_);}
	.st19{fill:url(#SVGID_20_);}
	.st20{fill:url(#SVGID_21_);}
	.st21{fill:url(#SVGID_22_);}
	.st22{fill:url(#SVGID_23_);}
	.st23{fill:url(#SVGID_24_);}
	.st24{fill:url(#SVGID_25_);}
	.st25{fill:url(#SVGID_26_);}
	.st26{fill:url(#SVGID_27_);}
	.st27{fill:url(#SVGID_28_);}
	.st28{fill:url(#SVGID_29_);}
	.st29{fill:url(#SVGID_30_);}
	.st30{fill:url(#SVGID_31_);}
	.st31{fill:url(#SVGID_32_);}
	.st32{fill:url(#SVGID_33_);}
	.st33{fill:url(#SVGID_34_);}
	.st34{fill:url(#SVGID_35_);}
	.st35{fill:url(#SVGID_36_);}
	.st36{fill:url(#SVGID_37_);}
	.st37{fill:url(#SVGID_38_);}
	.st38{fill:url(#SVGID_39_);}
	.st39{fill:url(#SVGID_40_);}
	.st40{fill:url(#SVGID_41_);}
	.st41{fill:url(#SVGID_42_);}
	.st42{fill:url(#SVGID_43_);}
	.st43{fill:url(#SVGID_44_);}
	.st44{fill:url(#SVGID_45_);}
	.st45{fill:url(#SVGID_46_);}
	.st46{fill:#222B39;}
	.st47{fill:#43D3E8;}
	.st48{fill:#FD0134;}
	.st49{fill:url(#SVGID_47_);}
	.st50{fill:url(#SVGID_48_);}
	.st51{fill:#FFFFFF;}
</style>
<g>
	<linearGradient id="SVGID_1_" gradientUnits="userSpaceOnUse" x1="4.3209" y1="21.6444" x2="46.385" y2="29.0615">
		<stop  offset="0" style="stop-color:#8D26E5"/>
		<stop  offset="1" style="stop-color:#3C01F3"/>
	</linearGradient>
	<circle class="st0" cx="25.4" cy="25.4" r="21.4"/>
</g>
<g>
	<g>
		<g>
			<g>
				<path class="st51" d="M32.9,26.1h-1.1v-3.2h1.1c1.4,0,2.5-1.1,2.5-2.5v-1.6c0-0.3-0.2-0.5-0.5-0.5c-0.3,0-0.5,0.2-0.5,0.5v1.6
					c0,0.8-0.7,1.5-1.5,1.5h-1.2c-0.3-1.1-1.2-2.1-2.3-2.4C29.3,18,28.4,16.6,27,16v-1.9c0-0.3-0.2-0.5-0.5-0.5S26,13.8,26,14.1v1.6
					c-0.3-0.1-0.6-0.1-0.9-0.1c-0.3,0-0.6,0-0.9,0.1v-1.6c0-0.3-0.2-0.5-0.5-0.5c-0.3,0-0.5,0.2-0.5,0.5V16c-1.3,0.7-2.3,2-2.4,3.5
					c-1.1,0.3-2,1.2-2.3,2.4h-1.5c-0.8,0-1.5-0.7-1.5-1.5v-1.6c0-0.3-0.2-0.5-0.5-0.5s-0.5,0.2-0.5,0.5v1.6c0,1.4,1.1,2.5,2.5,2.5
					h1.4v3.2h-1.4c-1.4,0-2.5,1.1-2.5,2.5v1.6c0,0.3,0.2,0.5,0.5,0.5s0.5-0.2,0.5-0.5v-1.6c0-0.8,0.7-1.5,1.5-1.5h1.4v2.2
					c0,0.9,0.2,1.7,0.5,2.5h-0.8c-1.4,0-2.5,1.1-2.5,2.5v1.6c0,0.3,0.2,0.5,0.5,0.5c0.3,0,0.5-0.2,0.5-0.5v-1.6
					c0-0.8,0.7-1.5,1.5-1.5h1.3c0,0,0,0,0,0c1.2,1.9,3.3,3.1,5.6,3.1h0.1c2.4,0,4.4-1.2,5.6-3.1h1.1c0.8,0,1.5,0.7,1.5,1.5v1.6
					c0,0.3,0.2,0.5,0.5,0.5c0.3,0,0.5-0.2,0.5-0.5v-1.6c0-1.4-1.1-2.5-2.5-2.5h-0.6c0.3-0.8,0.5-1.6,0.5-2.5v-2.2h1.1
					c0.8,0,1.5,0.7,1.5,1.5v1.6c0,0.3,0.2,0.5,0.5,0.5c0.3,0,0.5-0.2,0.5-0.5v-1.6C35.4,27.2,34.3,26.1,32.9,26.1z M25.1,16.6
					c1.7,0,3,1.2,3.3,2.8h-6.5C22.1,17.8,23.5,16.6,25.1,16.6z M19.4,22.7c0-1.3,1-2.3,2.3-2.3h6.7c1.3,0,2.3,1,2.3,2.3v1.5
					c-1.7-1-4-0.9-5.7,0.3c-0.9-0.7-2-1-3.1-1c-0.9,0-1.8,0.2-2.6,0.7L19.4,22.7L19.4,22.7z M19.4,26.8v-1.3c1.5-1.2,3.7-1.2,5.2,0
					v1.3C23,25.8,21,25.8,19.4,26.8L19.4,26.8z M30.8,29.3c0,3.1-2.5,5.6-5.6,5.6h-0.1c-3.1,0-5.6-2.5-5.6-5.6V28
					c1.5-1.2,3.7-1.2,5.2,0v2.4c0,0.3,0.2,0.5,0.5,0.5s0.5-0.2,0.5-0.5V28c1.5-1.2,3.7-1.2,5.2,0V29.3z M25.6,26.8v-1.3
					c1.5-1.2,3.7-1.2,5.2,0v1.3l0,0C29.2,25.8,27.2,25.8,25.6,26.8z"/>
				<path class="st51" d="M25.1,32.3c-0.3,0-0.5,0.2-0.5,0.5v0.1c0,0.3,0.2,0.5,0.5,0.5s0.5-0.2,0.5-0.5v-0.1
					C25.6,32.6,25.4,32.3,25.1,32.3z"/>
			</g>
		</g>
	</g>
</g>
</svg>
